<?xml version="1.0" encoding="UTF-8" standalone="no"?>
<!-- Created with Inkscape (http://www.inkscape.org/) -->

<svg
   width="85.251419mm"
   height="89.383018mm"
   viewBox="0 0 85.251419 89.383018"
   version="1.1"
   id="svg1"
   xml:space="preserve"
   inkscape:version="1.3 (0e150ed6c4, 2023-07-21)"
   sodipodi:docname="Ribot2.svg"
   xmlns:inkscape="http://www.inkscape.org/namespaces/inkscape"
   xmlns:sodipodi="http://sodipodi.sourceforge.net/DTD/sodipodi-0.dtd"
   xmlns="http://www.w3.org/2000/svg"
   xmlns:svg="http://www.w3.org/2000/svg"><sodipodi:namedview
     id="namedview1"
     pagecolor="#ffffff"
     bordercolor="#000000"
     borderopacity="0.25"
     inkscape:showpageshadow="2"
     inkscape:pageopacity="0.0"
     inkscape:pagecheckerboard="0"
     inkscape:deskcolor="#d1d1d1"
     inkscape:document-units="mm"
     inkscape:zoom="0.69397446"
     inkscape:cx="-203.1775"
     inkscape:cy="1255.8099"
     inkscape:window-width="1374"
     inkscape:window-height="877"
     inkscape:window-x="1978"
     inkscape:window-y="69"
     inkscape:window-maximized="1"
     inkscape:current-layer="layer1"
     showguides="true"
     showgrid="false" /><defs
     id="defs1" /><g
     inkscape:label="Layer 1"
     inkscape:groupmode="layer"
     id="layer1"
     transform="translate(133.17702,-325.29723)"><path
       style="fill:#fc2e00;fill-opacity:1;stroke-width:1"
       d="m -96.819204,414.15348 -1.466675,-0.30568 v -0.58413 -0.58415 l 0.231582,10e-4 0.231581,10e-4 1.010969,0.61639 1.010969,0.6164 h 0.30131 0.30131 v -0.46317 -0.46315 l 0.07714,0.004 0.07714,0.003 1.51574,0.45982 1.515736,0.45981 h 0.568473 0.568462 v -0.46316 -0.46315 h 0.473083 0.47307 l 0.993593,0.4126 0.993592,0.41261 0.849116,0.21082 0.849116,0.21081 v -0.77781 -0.77781 h 0.16526 0.165249 l 0.747481,0.48978 0.747482,0.48977 0.322351,-0.19923 0.322352,-0.19922 0.0126,-0.52212 0.0126,-0.52213 0.851053,0.99392 0.851042,0.9939 1.526321,-1.08516 1.526308,-1.08517 0.281833,0.63161 0.281821,0.63159 0.493167,-0.002 0.493167,-0.002 0.926313,-0.61348 0.926314,-0.61347 0.514617,-0.002 0.514621,-0.002 0.133898,0.38597 0.133898,0.38596 2.130425,-1.47617 2.130425,-1.47618 0.09867,0.62705 0.09867,0.62706 h 0.139047 0.139046 l 1.282373,-0.80953 1.282374,-0.80952 1.537561,-1.42908 1.537562,-1.42906 -0.215653,1.37788 -0.215654,1.37787 -0.06305,0.0545 -0.06305,0.0545 -3.817231,1.57482 -3.817231,1.57483 -0.264921,-0.16374 -0.26492,-0.16372 -0.957563,0.49518 -0.957562,0.49517 -0.43317,-0.3595 -0.433159,-0.35949 -1.34038,0.64887 -1.340393,0.64887 h -0.344863 -0.344863 l -0.198928,-0.62681 -0.19894,-0.62678 -1.272169,0.93556 -1.272169,0.93556 h -0.412025 -0.412012 l -0.177736,-0.46315 -0.177724,-0.46316 h -0.430125 -0.430124 v 0.34225 0.34224 l -0.819836,-0.20576 -0.819825,-0.20577 -0.247639,0.40069 -0.247651,0.4007 -1.788653,-0.49071 -1.788664,-0.4907 -0.540349,-0.23389 -0.540348,-0.23389 v 0.66457 0.66457 l -1.157896,-0.19534 -1.157895,-0.19534 -0.51436,-0.13999 -0.514371,-0.13998 -0.19859,0.32134 -0.19859,0.32132 -0.522132,-0.0365 -0.52212,-0.0365 z m -4.785966,-1.07431 -0.69473,-0.13383 v -0.28729 -0.28729 l 0.23158,0.0105 0.23158,0.0105 0.77192,0.44128 0.77193,0.44127 -0.30877,-0.0312 -0.30877,-0.0312 z m -1.92981,-0.55403 v -0.15438 h 0.15438 0.15438 v 0.15438 0.15438 h -0.15438 -0.15438 z m -4.01404,-0.9582 -2.93332,-0.77447 -1.23509,-0.73007 -1.23508,-0.73007 -1.37657,-1.41411 -1.37657,-1.41412 h -0.22672 -0.22673 l -0.095,1.31228 -0.095,1.31228 -1.42809,-1.43183 -1.42808,-1.43182 -0.8877,-2.18053 -0.8877,-2.18052 -0.65986,0.1634 -0.65987,0.16339 -0.40202,-1.56858 -0.40201,-1.56858 h -0.17965 -0.17966 l -0.75902,1.38947 -0.75904,1.38947 h -0.20782 -0.20782 l -0.33981,-0.97479 -0.33982,-0.97478 -0.36353,-2.73047 -0.36354,-2.73047 h -0.22181 -0.22183 l -0.78089,1.31228 -0.78089,1.31228 -0.74117,-1.69824 -0.74118,-1.69825 -0.39704,-1.85263 -0.39704,-1.85262 -0.14992,-0.25169 -0.14991,-0.2517 -0.63197,0.56047 -0.63197,0.56046 0.20281,-2.47017 0.20281,-2.47018 0.26298,-0.92631 0.26299,-0.92631 0.23524,1.54386 0.23525,1.54386 0.20808,0.39067 0.20807,0.39068 0.79424,-0.85384 0.79424,-0.85383 0.53864,-0.84912 0.53864,-0.84912 h -0.32894 -0.32894 l -0.31473,0.54035 -0.31472,0.54035 -0.009,-0.40626 -0.009,-0.40627 0.34649,-0.67444 0.3465,-0.67443 0.8114,-0.89676 0.81139,-0.89676 -0.61754,0.22096 -0.61754,0.22097 1.07331,-1.10918 1.07332,-1.10917 0.18497,0.52733 0.18497,0.52731 0.68669,-1.41852 0.68671,-1.41853 0.7398,-0.48474 0.7398,-0.48474 -0.13016,-0.67585 -0.13015,-0.67585 0.31649,-0.38136 0.3165,-0.38135 -0.32773,-0.20255 -0.32772,-0.20253 -1.25058,1.07044 -1.25056,1.07044 -0.59853,0.15652 -0.59852,0.15652 0.17304,-0.27998 0.17304,-0.27998 h 0.39111 0.39111 l 0.71043,-0.75622 0.71043,-0.75621 -0.17115,-0.446 -0.17115,-0.44601 0.74963,-0.70423 0.74963,-0.70423 v -0.3763 -0.37629 l 0.46315,-0.17774 0.46316,-0.17773 v -0.32434 -0.32435 l -0.84913,0.17999 -0.84911,0.18 1.23508,-0.79008 1.23508,-0.79006 0.24981,-10e-4 0.2498,-10e-4 -0.19083,-0.30877 -0.19083,-0.30877 h -0.73606 -0.73605 l -1.11154,0.65582 -1.11153,0.65582 -0.17493,-0.17493 -0.17492,-0.17492 1.66699,-1.06637 1.66699,-1.06636 1.66662,-0.804 1.66662,-0.804 h 0.40536 0.40537 v -0.31465 -0.31466 l -0.84911,0.20106 -0.84913,0.20106 -1.15268,0.38446 -1.15269,0.38445 0.1511,-0.24449 0.15111,-0.24448 -0.36442,-0.12148 -0.36443,-0.12147 0.90285,-0.64102 0.90284,-0.641 1.64792,-0.96996 1.64791,-0.96996 0.16354,0.62536 0.16353,0.62538 0.34996,-0.013 0.34995,-0.013 1.08069,-0.59166 1.0807,-0.59166 -0.30877,-0.0253 -0.30876,-0.0253 0.87641,-0.47496 0.87642,-0.47496 0.15036,0.15036 0.15036,0.15035 -0.64082,0.20339 -0.6408,0.20339 v 0.28796 0.28797 h 0.32681 0.32682 l 2.22055,-0.32891 2.22054,-0.32891 1.0807,-0.48866 1.08069,-0.48868 0.16186,-0.24571 0.16185,-0.24573 2.61709,-0.0271 2.61709,-0.0271 2.401715,0.4486 2.401706,0.44859 1.431816,0.8391 1.431809,0.83909 1.317974,1.31797 1.317962,1.31797 0.777987,1.49522 0.777975,1.49522 0.01436,-0.46773 0.01435,-0.46772 -0.65006,-1.23052 -0.650059,-1.23051 -0.590775,-0.64356 -0.590764,-0.64356 0.697708,0.0514 0.697709,0.0513 0.311545,1.11038 0.311545,1.11038 0.274247,-0.005 0.274247,-0.005 0.261375,0.41234 0.261376,0.41233 0.0093,-0.92631 0.0093,-0.92631 0.304041,0.46315 0.304041,0.46316 0.304053,-0.46316 0.304041,-0.46315 0.0047,-0.78737 0.0047,-0.78737 -0.370526,-0.37053 -0.370525,-0.37052 h 0.388754 0.388742 l -0.190829,-0.30877 -0.190829,-0.30878 h 0.215756 0.215769 l 0.39795,0.54035 0.39795,0.54036 0.198777,-0.51249 0.198777,-0.51248 -0.4855,-0.93885 -0.485499,-0.93885 v -0.16003 -0.16002 l 0.463163,0.17772 0.463151,0.17774 v -0.74321 -0.74321 l -0.349764,-0.34978 -0.349777,-0.34976 0.194506,-0.50686 0.194494,-0.50685 0.518526,0.51852 0.518514,0.51852 0.08659,0.81227 0.08659,0.81226 0.322083,0.10737 0.322071,0.10736 v 1.088 1.08801 l 0.502865,-0.19297 0.502864,-0.19296 -0.186371,0.93185 -0.186372,0.93186 h 0.263593 0.263592 l 0.38369,-0.92631 0.383689,-0.92632 h 0.292114 0.292126 l -0.183057,-0.57676 -0.183057,-0.57676 0.33436,-0.87944 0.33436,-0.87944 0.251782,0.40738 0.251771,0.40738 0.656816,-0.35151 0.656805,-0.35152 v 0.14903 0.14903 l 2.084209,-0.98728 2.08421,-0.98729 3.087709,0.004 3.087713,0.003 2.076414,0.97977 2.076414,0.97977 1.379451,1.41935 1.379451,1.41935 0.850918,1.73922 0.850918,1.73921 0.126386,1.74728 0.126387,1.74727 -0.35752,1.72217 -0.357519,1.72215 -1.143372,1.63659 -1.143372,1.63659 -1.29822,0.99019 -1.298221,0.99018 -2.483179,1.01529 -2.483178,1.01529 v 0.20657 0.20657 l 1.253502,-0.22922 1.253503,-0.22921 -0.181568,0.47315 -0.181568,0.47316 3.945599,-0.19113 3.945599,-0.19112 -0.599366,0.45179 -0.599364,0.45181 0.599364,0.46789 0.599366,0.4679 -0.822694,-0.18596 -0.822694,-0.18596 -5.352733,0.6545 -5.352731,0.6545 -0.694736,0.15014 -0.694741,0.15016 v 0.3211 0.32112 l 0.308777,-0.19083 0.308771,-0.19083 v 0.36047 0.36046 l -0.768197,-0.1928 -0.768196,-0.19281 -0.571508,0.35692 -0.571508,0.3569 -0.59011,-0.34257 -0.590122,-0.34258 0.385965,-0.009 0.385965,-0.009 v -0.30575 -0.30574 l -8.568407,0.16916 -8.568411,0.16914 -1.312279,0.33111 -1.312279,0.3311 v 0.62706 0.62704 l 8.568411,-0.20372 8.568407,-0.20373 6.175426,-0.46486 6.175426,-0.46488 1.466664,-0.19274 1.466663,-0.19275 v 1.12048 1.12047 h -0.308771 -0.308771 v -0.30876 -0.30877 h -1.333788 -1.333789 l -0.673225,0.77427 -0.673224,0.77428 v 2.26557 2.26559 l 0.564662,0.51101 0.564662,0.51101 h 0.910491 0.91049 l 0.681003,-0.47699 0.681004,-0.47699 0.269442,-0.98967 0.269444,-0.98967 0.327649,0.0686 0.327649,0.0686 0.209103,-1.23768 0.209102,-1.23767 -0.213726,-1.84147 -0.213727,-1.84148 h 0.923158 0.923159 l 0.238728,0.84911 0.238728,0.84913 -0.09538,2.77894 -0.09538,2.77895 -0.03268,4.47164 -0.03269,4.47165 -0.777744,0.37413 -0.777744,0.37415 -4.78014,0.52229 -4.780139,0.5223 -2.933333,0.23472 -2.933325,0.23472 -10.189454,0.35597 -10.189459,0.35598 -0.437594,0.14957 -0.437594,0.14958 0.364225,0.36423 0.364235,0.36423 1.308451,0.11764 1.308451,0.11765 4.29417,0.1424 4.294152,0.14241 0.255494,-0.40283 0.255493,-0.40282 0.0047,0.38597 0.0047,0.38596 h 0.650573 0.650585 l -0.18818,-0.54035 -0.188181,-0.54035 0.420766,0.54035 0.420753,0.54035 h 0.233554 0.233554 l -0.161491,-0.61754 -0.161491,-0.61754 h 0.709985 0.709986 l 0.195497,0.50946 0.195498,0.50946 4.844782,-0.21613 4.84478,-0.21613 -0.190434,0.19043 -0.190434,0.19043 -1.733669,0.0868 -1.733663,0.0869 -0.09546,0.12408 -0.09546,0.12408 -0.671941,0.97399 -0.671941,0.97397 v 0.39692 0.39692 l 0.962958,-0.98493 0.962947,-0.98494 h 0.590156 0.590146 l -0.659046,0.8914 -0.659034,0.89141 -0.723301,0.3871 -0.7233,0.38709 -0.178028,0.46394 -0.178027,0.46394 0.114133,0.11414 0.114251,0.11413 1.668508,-0.73093 1.668509,-0.73094 0.308779,0.10912 0.308768,0.109 0.900943,-1.62071 0.900944,-1.62071 0.448379,-0.26765 0.448381,-0.26766 -0.42301,-0.26797 -0.423009,-0.26796 1.428066,-0.005 1.428067,-0.005 1.042104,-0.15742 1.042103,-0.15742 -0.457643,0.20704 -0.457644,0.20705 -0.391478,0.39148 -0.391477,0.39147 -0.01294,0.87118 -0.01294,0.87118 -0.591657,1.0807 -0.591658,1.08069 -0.01294,-0.41899 -0.01294,-0.419 -0.416662,0.15989 -0.416663,0.15988 0.220277,-1.2046 0.220278,-1.2046 -0.384834,-0.31938 -0.384834,-0.31939 -1.294842,2.61387 -1.294844,2.61385 -0.439718,0.36494 -0.439729,0.36493 -0.04866,-0.73254 -0.04866,-0.73254 0.01435,-0.38597 0.01436,-0.38596 h -0.236647 -0.236657 l -0.369161,0.4448 -0.369148,0.44481 -0.391112,-0.15009 -0.391111,-0.15008 -0.396048,0.4772 -0.396049,0.47722 h -0.404543 -0.404544 l -0.196,-0.61755 -0.195999,-0.61753 h -0.417101 -0.417089 l -0.487215,-0.18697 -0.487203,-0.18696 0.184294,0.92144 0.184282,0.92145 -0.339879,0.21005 -0.33988,0.21006 v -0.65399 -0.654 l -0.308768,0.19085 -0.308767,0.19083 v -0.94455 -0.94453 h -0.308779 -0.308768 l -0.0093,0.84912 -0.0093,0.84913 -0.41018,-0.54035 -0.410181,-0.54036 h -0.660703 -0.66069 v 0.44565 0.44565 l 0.632869,0.44328 0.632869,0.44329 -0.523357,0.52334 -0.523357,0.52336 -0.263896,-0.40878 -0.263908,-0.40877 -0.287551,0.44705 -0.287551,0.44705 -0.209081,-0.83302 -0.20907,-0.83301 h -0.311312 -0.311311 l 0.166112,0.63519 0.1661,0.63518 -0.462392,-0.38375 -0.462404,-0.38376 -0.280515,0.4433 -0.280502,0.4433 -0.0047,0.38597 -0.0047,0.38597 h -0.166684 -0.166684 l -1.145595,-0.58469 -1.145584,-0.58468 -0.518864,-0.57377 -0.518852,-0.57378 -0.32262,-0.84855 -0.32262,-0.84856 h -0.349449 -0.34945 l 0.197879,0.51567 0.197878,0.51565 -0.355506,0.21972 -0.355495,0.21971 0.709075,0.95907 0.709064,0.95907 -0.209642,0.20964 -0.209642,0.20965 v -0.36024 -0.36023 h -0.286127 -0.286139 l -0.09978,0.46794 -0.09978,0.46792 -1.080694,-0.57909 -1.080698,-0.57911 -0.749348,-0.23573 -0.749337,-0.23575 -0.792201,-0.73456 -0.79219,-0.73457 -0.31109,0.10352 -0.31109,0.10351 -0.11052,0.57012 -0.11052,0.57012 -0.42019,0.4202 -0.42022,0.42022 -0.96543,-1.71065 -0.96543,-1.71066 h -0.28723 -0.28722 l 0.47109,0.91098 0.47108,0.91099 v 0.17233 0.17234 l -0.63508,-0.38858 -0.63508,-0.38858 -0.6252,-1.00351 -0.6252,-1.0035 h -0.28359 -0.28359 v 0.46315 0.46316 h -0.29907 -0.29908 l 0.17874,0.4658 0.17875,0.4658 -0.62093,-0.23422 -0.62093,-0.23423 -1.53098,-1.41322 -1.53098,-1.41323 -0.15565,-0.4394 -0.15566,-0.4394 -0.23971,0.22317 -0.23972,0.22317 0.87585,1.1663 0.87586,1.1663 0.19323,0.15438 0.19323,0.1544 0.19936,0.54035 0.19938,0.54034 h -0.26914 -0.26913 l -1.606,-1.62105 -1.60599,-1.62105 0.15162,0.67164 0.15163,0.67163 -0.50539,-0.1891 -0.5054,-0.18909 0.41999,0.59816 0.41998,0.59817 -1.71439,-1.80576 -1.7144,-1.80575 -0.19209,-0.87467 -0.19211,-0.87466 -0.44332,-0.36791 -0.4433,-0.36791 -0.005,1.35008 -0.005,1.35009 -0.26057,0.41103 -0.26057,0.41104 -0.21141,-1.32203 -0.21139,-1.32204 -0.33021,-0.39788 -0.33022,-0.39788 -0.27378,0.16921 -0.27379,0.1692 v -0.63576 -0.63576 h -0.32769 -0.3277 l 0.20837,-1.38947 0.20836,-1.38948 h -0.34382 -0.34384 l -0.0124,-0.54034 -0.0124,-0.54035 -0.46066,0.84911 -0.46066,0.84913 h -0.11565 -0.11565 l 0.10702,-0.54035 0.10713,-0.54035 0.13973,-1.28491 0.13973,-1.28491 -0.59407,-0.15535 -0.59406,-0.15536 -1.00833,1.4973 -1.00835,1.49728 -0.41997,-0.25955 -0.41997,-0.25957 0.18756,-3.07858 0.18755,-3.07859 -0.43263,-0.57853 -0.43264,-0.57852 -0.45333,0.61755 -0.45335,0.61755 -0.49005,0.61753 -0.49005,0.61755 0.31921,-0.89195 0.31921,-0.89194 -0.17981,-0.17982 -0.17981,-0.17981 -0.28726,0.45421 -0.28726,0.45423 -10e-4,-0.30878 -0.001,-0.30877 0.43063,-1.38948 0.43062,-1.38946 0.2166,-0.54035 0.21663,-0.54035 h -0.32181 -0.32184 l -0.38798,1.07294 -0.38796,1.07293 -0.12351,-0.12348 -0.12348,-0.12349 0.68554,-1.95296 0.68552,-1.95295 0.10807,-0.12202 0.10806,-0.12203 0.28361,0.73956 0.28361,0.73957 0.32152,-0.81912 0.32152,-0.81914 0.40501,-0.24365 0.40502,-0.24365 -0.33804,0.44524 -0.33804,0.44524 -0.19262,0.54035 -0.19263,0.54035 h 0.22202 0.22205 l 1.31213,-1.19942 1.31214,-1.19942 v -0.43311 -0.43313 l -0.62649,-0.0471 -0.62649,-0.0471 -0.37409,0.59903 -0.3741,0.59902 h -0.41087 -0.41087 l 1.17988,-1.12497 1.17986,-1.12499 -0.39634,-0.13929 -0.39634,-0.1393 -0.45278,0.37577 -0.45277,0.37578 v -0.32837 -0.32835 l 0.30877,-0.19082 0.30877,-0.19085 v -0.29053 -0.29055 h -0.57173 -0.57173 l -1.04932,2.14205 -1.04932,2.14207 -0.53323,0.0194 -0.53324,0.0194 -0.45455,0.69474 -0.45457,0.69473 -0.47886,1.84031 -0.47886,1.8403 v 1.49665 1.49664 l 0.34674,1.37706 0.34675,1.37707 0.2312,0.14289 0.2312,0.14289 0.7338,-1.38322 0.73379,-1.38324 h 0.32555 0.32556 l 0.37704,3.01053 0.37704,3.01052 0.18307,0.69473 0.18307,0.69473 h 0.23172 0.23173 l 0.81734,-1.23508 0.81734,-1.23508 h 0.26933 0.26934 l 0.20728,1.38228 0.20728,1.38226 0.30447,0.18817 0.30444,0.18817 0.39838,-0.33061 0.39835,-0.33062 0.97406,2.5643 0.97406,2.56428 1.07137,1.21342 1.07137,1.21342 0.0176,-1.08071 0.0176,-1.0807 0.24363,-0.38364 0.24365,-0.38365 1.21829,1.26938 1.2183,1.26938 1.46817,1.17774 1.46817,1.17776 2.38486,0.53058 2.38487,0.53058 1.24168,0.56407 1.24171,0.56406 -0.46316,-0.008 -0.46316,-0.008 z m 24.724204,-4.00089 0.794418,-0.40368 0.401288,-0.48353 0.401277,-0.48351 h 0.579735 0.579735 v -0.30877 -0.30877 l -0.540348,-0.0365 -0.540349,-0.0365 -0.308768,0.069 -0.308779,0.069 -0.355354,0.0584 -0.355355,0.0584 -1.265692,1.14347 -1.265692,1.14348 v 0.176 0.17599 l 0.694733,-0.21431 0.694732,-0.2143 z m -14.22597,-5.38475 v -0.61754 l -1.003511,-0.005 -1.0035,-0.005 -4.168423,-0.18308 -4.1684,-0.18309 -0.39355,-0.3707 -0.39354,-0.3707 -0.0473,-2.29718 -0.0473,-2.29718 0.0549,-4.2456 0.0549,-4.24561 h 3.08771 3.08771 v -0.62734 -0.62734 l -3.62806,0.0869 -3.62806,0.0869 -0.0827,7.69833 -0.0827,7.69832 0.3023,0.3023 0.30229,0.3023 3.64006,0.21081 3.64005,0.21082 2.238595,0.0482 2.238593,0.0482 z m 6.482382,-0.68671 0.639766,-0.68673 0.53015,0.37992 0.530149,0.37991 0.385965,0.18546 0.385953,0.18545 0.418817,-0.16071 0.418804,-0.16071 0.166089,-2.88284 0.166089,-2.88285 -0.280841,-0.52886 -0.280829,-0.52884 -0.458448,0.17592 -0.458448,0.17592 v 1.97398 1.97398 h -0.28796 -0.287971 l -0.195999,-0.61754 -0.196,-0.61755 h -0.41661 -0.416623 l -0.155737,0.38596 -0.155749,0.38597 -0.02439,-1.77543 -0.02439,-1.77544 h -0.771931 -0.77193 v 3.34502 3.34502 l 0.205849,0.20585 0.205849,0.20585 h 0.245282 0.245282 z m 8.529359,-0.47118 0.570504,-0.84912 -0.0035,-2.00701 -0.0035,-2.00701 -0.388439,-0.69475 -0.388439,-0.69473 -1.455798,0.006 -1.455798,0.006 -0.694744,0.73293 -0.694733,0.73292 v 2.24795 2.24795 l 0.51101,0.56466 0.511022,0.56467 h 1.46049 1.460489 z m -3.117176,-1.29065 -0.200306,-0.63109 0.208976,-1.39352 0.208965,-1.3935 h 1.06038 1.060369 l -0.09196,1.92981 -0.09196,1.92983 -0.977114,0.0948 -0.977114,0.0948 z m 5.646844,0.51872 0.09581,-1.15789 h 0.136552 0.136551 l 1.115825,1.23508 1.115825,1.23509 h 0.282533 0.282533 l 0.173523,-0.4522 0.173522,-0.45219 -0.683261,-0.95956 -0.68326,-0.95955 0.654435,-0.45839 0.654424,-0.45838 v -1.31021 -1.31021 l -0.370525,-0.37052 -0.370526,-0.37053 h -1.780005 -1.780005 l -0.319644,0.59724 -0.319632,0.59724 v 2.97511 2.9751 l 0.694733,-0.0987 0.694744,-0.0986 z m 0.05858,-3.62806 v -0.61755 h 1.080698 1.080698 v 0.61755 0.61754 h -1.080698 -1.080698 z m 8.817346,4.25397 0.21331,-0.21331 -0.18284,-0.47647 -0.18284,-0.47648 h -1.553548 -1.553546 v -2.60633 -2.60633 l -0.246321,-0.15224 -0.246322,-0.15223 -0.327786,0.2112 -0.32779,0.21121 -0.22081,3.35419 -0.22081,3.35421 2.317997,-0.11705 2.317995,-0.11706 z m 4.690131,-0.81067 0.408341,-0.50998 0.319928,-0.77193 0.319929,-0.77192 0.343188,0.61323 0.34319,0.61323 0.224013,-0.83761 0.224013,-0.83762 -0.167931,-1.85197 -0.167932,-1.85199 -0.266597,0.16477 -0.266598,0.16476 v 0.64441 0.64441 l -0.757185,-0.81702 -0.757185,-0.81701 h -1.674389 -1.67439 l -0.192981,0.9649 -0.192983,0.96492 v 2.62154 2.62153 l 1.763615,-0.22035 1.763614,-0.22034 z m -2.328627,-2.74857 0.09131,-2.0842 0.849121,-0.0977 0.849121,-0.0977 v 1.81137 1.81139 l -0.370526,0.37052 -0.370525,0.37053 h -0.569896 -0.569897 z m -42.055983,-4.63435 v -4.21194 l -0.26875,0.29332 -0.26875,0.29334 -0.18539,1.44394 -0.18538,1.44395 0.35441,0.11813 0.35442,0.11814 -0.25941,0.41975 -0.25943,0.41975 -0.0413,1.87781 -0.0413,1.87781 0.11308,0.23662 0.11308,0.23662 0.28744,-0.17765 0.28744,-0.17765 z m 19.702805,0.15716 0.09581,-1.15788 h 1.06206 1.062061 v 1.25656 1.25656 l 0.694732,-0.0986 0.694745,-0.0987 0.08858,-3.2153 0.08858,-3.2153 -0.307041,-0.30705 -0.30704,-0.30704 -0.476245,0.39524 -0.476245,0.39526 v 1.00942 1.00941 l -0.786121,0.19731 -0.786133,0.1973 -0.294576,-0.18205 -0.294565,-0.18205 v -1.23834 -1.23834 l -0.694733,0.0986 -0.694744,0.0986 -0.08788,3.34216 -0.08788,3.34218 0.705411,-0.10013 0.705422,-0.10013 z m 8.858538,0.54037 v -0.61755 l -1.621047,-0.0934 -1.621046,-0.0934 v -0.41399 -0.41398 l 0.488405,-0.18742 0.488417,-0.18743 h 0.613765 0.613766 l -0.09873,-0.69473 -0.09861,-0.69473 -1.022114,-0.0981 -1.022113,-0.0981 0.09849,-0.5194 0.0985,-0.51939 1.380759,-0.0984 1.380748,-0.0984 0.373664,-0.31012 0.373665,-0.31011 -0.169064,-0.44058 -0.169065,-0.44058 h -2.11014 -2.110141 l -0.207226,0.33529 -0.207225,0.33529 -0.164817,3.22938 -0.164817,3.22937 2.438023,-0.091 2.438024,-0.091 z m 5.730822,0.12435 0.249472,-0.40364 -0.152236,-0.24632 -0.152237,-0.24632 h -1.513611 -1.513612 l -0.08916,-2.70176 -0.08916,-2.70174 h -0.617547 -0.617534 l -0.08904,3.06573 -0.08904,3.06573 0.172566,0.44971 0.172577,0.44971 2.039595,-0.16372 2.039606,-0.16372 z m 5.153369,-0.14027 0.385965,-0.1191 v -0.47285 -0.47284 h -1.543856 -1.543857 v -2.62455 -2.62456 h -0.573557 -0.573556 l -0.198369,1.89792 -0.19838,1.89792 v 1.29272 1.29271 l 0.180816,0.18082 0.180811,0.1808 1.749009,-0.15494 1.74901,-0.15496 z m -59.206904,-4.36292 v -1.10029 l -0.41054,0.34072 -0.41053,0.34072 0.13634,0.92902 0.13635,0.92903 0.27419,-0.16945 0.27419,-0.16947 z m -1.52069,-0.49204 -0.0231,-0.22386 -0.005,-0.69473 -0.005,-0.69473 -0.29931,0.46315 -0.29931,0.46316 -0.005,0.56607 -0.005,0.56608 0.33193,-0.11063 0.33192,-0.11063 z m 33.32413,-2.65083 v -0.26558 l -1.705176,-0.17598 -1.705174,-0.176 -1.88158,0.10095 -1.88159,0.10095 -0.89042,-0.25537 -0.89042,-0.25538 v 0.42959 0.42958 l 2.70175,0.10293 2.70175,0.10293 1.77543,0.0635 1.77543,0.0635 z m 2.717348,-3.89403 1.945409,-0.87906 1.420566,-1.57189 1.420555,-1.57188 0.631737,-1.38948 0.631749,-1.38947 0.01634,-2.62705 0.01634,-2.62707 -1.006499,-2.04847 -1.006499,-2.04848 -1.271189,-1.14844 -1.271188,-1.14845 -2.04512,-0.96899 -2.045102,-0.96899 h -3.087717 -3.08771 l -1.74782,0.85833 -1.74781,0.85831 -1.14377,1.26603 -1.14379,1.26602 -0.81366,1.73529 -0.81367,1.73531 0.0222,2.93333 0.0222,2.93332 0.65762,1.45731 0.65762,1.45731 1.28751,1.39678 1.28751,1.39679 1.10518,0.68304 1.1052,0.68303 1.40473,0.3964 1.40474,0.39639 2.62454,-0.0931 2.624563,-0.0931 z m -3.493246,-6.6828 -0.621514,-0.3024 -0.690758,-1.00809 -0.69077,-1.0081 v -0.80632 -0.80633 l 0.79448,-0.94418 0.794461,-0.94417 1.201261,-0.32346 1.20125,-0.32347 1.028871,0.42989 1.028882,0.4299 0.475522,0.73687 0.475526,0.73686 0.18895,0.74339 0.188951,0.74338 -0.422656,1.01154 -0.422649,1.01154 -0.9353,0.48367 -0.935312,0.48365 -1.018834,-0.0209 -1.018846,-0.0209 z m 27.716205,4.46248 -0.385964,-0.15574 -0.385964,0.15574 -0.385963,0.15574 h 0.771927 0.77193 z m -4.708767,-0.56743 v -0.15439 h -0.154384 -0.154383 v 0.15439 0.15438 h 0.154383 0.154384 z m 8.416857,-0.85255 1.692328,-0.77478 1.217149,-1.09962 1.21715,-1.09962 0.892243,-1.63758 0.892243,-1.63759 0.121762,-2.62455 0.121763,-2.62456 -0.649632,-1.72274 -0.649631,-1.72275 -1.081168,-1.2631 -1.081167,-1.26311 -1.608019,-0.98941 -1.608019,-0.98943 -2.435461,-0.47981 -2.435459,-0.47982 -1.877892,0.38788 -1.877882,0.38787 -1.49676,0.75846 -1.496749,0.75846 -1.255002,1.25501 -1.255002,1.255 -0.793065,1.74497 -0.793053,1.74497 0.0699,2.31579 0.0699,2.31578 0.05882,0.81964 0.05882,0.81964 0.195743,-0.12098 0.195754,-0.12098 0.403797,0.97489 0.403809,0.97487 1.598663,1.59866 1.598663,1.59867 1.356346,0.65659 1.356345,0.65659 1.694554,0.29877 1.694554,0.29876 1.895599,-0.098 1.895597,-0.098 z m -6.753155,-5.78472 -0.652091,-0.25863 -0.690298,-0.87485 -0.690298,-0.87485 0.148735,-1.3315 0.148736,-1.33151 0.712004,-0.75789 0.712004,-0.7579 1.146224,-0.34342 1.146223,-0.34341 1.188052,0.58019 1.188053,0.58019 0.564902,1.15605 0.564902,1.15606 -0.355554,1.07734 -0.355556,1.07734 -0.826889,0.57817 -0.826891,0.57816 -1.235084,0.17456 -1.235085,0.17455 z m -7.530353,2.62324 v -0.15438 h -0.154384 -0.154384 v 0.15438 0.15439 h 0.154384 0.154384 z m -1.852628,-3.39648 v -0.15439 h -0.154384 -0.154384 v 0.15439 0.15438 h 0.154384 0.154384 z m -0.308768,-1.23509 v -0.15438 h -0.154383 -0.154396 v 0.15438 0.15439 h 0.154396 0.154383 z m -4.940348,-1.23508 v -0.15439 h -0.154384 -0.154384 v 0.15439 0.15439 h 0.154384 0.154384 z m 9.880686,42.03071 v -0.11659 l 0.540349,-0.42376 0.540348,-0.42378 -0.423764,0.54035 -0.423776,0.54035 h -0.116585 -0.116584 z m 17.378666,-4.58602 1.919542,-2.55193 0.09815,1.02131 0.09815,1.02131 0.5194,-0.0958 0.519398,-0.0958 1.738746,-3.48868 1.738745,-3.4887 0.648404,0.86414 0.648406,0.86413 0.298231,-0.4549 0.29823,-0.4549 0.515814,-2.10482 0.515815,-2.10483 -0.126868,-2.90073 -0.126868,-2.90073 0.853007,0.50388 0.853007,0.50388 0.198612,-0.19861 0.198613,-0.19862 -0.496984,-1.45856 -0.496983,-1.45856 0.158631,-0.15863 0.158632,-0.15864 0.365379,0.36538 0.365379,0.36538 h 0.285614 0.285613 l -0.171358,-0.84913 -0.171359,-0.84911 -0.209044,-0.54035 -0.209044,-0.54035 h 0.341806 0.341807 v 0.46315 0.46316 h 0.272775 0.272776 l 0.175013,0.84912 0.175013,0.84913 -0.609326,0.51843 -0.609327,0.51844 0.201001,1.257 0.201001,1.25699 h -0.938637 -0.938637 l -0.206466,1.22207 -0.206467,1.22206 0.193333,0.60914 0.193332,0.60913 -0.492077,1.95125 -0.492078,1.95126 -0.492467,1.52509 -0.492467,1.52511 -0.714039,-0.8955 -0.71404,-0.89549 -0.132055,0.14232 -0.132054,0.14231 -1.115233,2.26951 -1.115235,2.26951 -0.953721,1.20417 -0.953721,1.20417 h -0.282826 -0.282825 v -0.77193 -0.77193 h -0.256428 -0.256429 l -0.997147,1.38851 -0.997148,1.3885 -0.588774,0.3151 -0.588773,0.31511 z m -49.799657,1.15172 v -0.15438 h 0.15439 0.15439 v 0.15438 0.15438 h -0.15439 -0.15439 z m 45.912879,-1.84875 0.513501,-1.07682 0.121814,0.12182 0.121814,0.12181 -0.493854,0.95501 -0.493854,0.955 h -0.141461 -0.141461 z m -2.365178,-1.47054 -0.01097,-0.84912 0.849121,-0.0117 0.849121,-0.0117 1.235086,-0.1653 1.235085,-0.16531 1.0807,-0.28611 1.080699,-0.2861 0.463157,-0.29809 0.463157,-0.29809 0.05145,-4.71953 0.05145,-4.71952 0.02574,-2.2386 0.02574,-2.23859 h 0.470012 0.470012 l -0.08405,2.00693 -0.08405,2.00694 -0.154385,-2.1e-4 -0.154386,-2.1e-4 0.10006,1.31257 0.100071,1.31256 0.164135,2.90705 0.164135,2.90703 -0.382101,1.15778 -0.382102,1.15778 -1.271569,0.47456 -1.271571,0.47457 -0.771928,0.16817 -0.771929,0.16818 -1.165461,0.1139 -1.165461,0.1139 -0.190821,-0.30875 -0.19082,-0.30876 -0.408212,0.73645 -0.408212,0.73646 z m -0.319713,-14.84561 v -1.99355 l 0.48841,-0.18742 0.488411,-0.18742 h 0.606397 0.606397 l -0.09131,2.08421 -0.09129,2.08421 -1.003506,0.0967 -1.003507,0.0967 z m 7.875193,-2.67023 -0.201929,-0.91937 0.185258,-0.5837 0.185258,-0.58369 -0.325272,-0.85554 -0.325274,-0.85553 0.09477,-0.0948 0.09477,-0.0948 0.424164,0.26214 0.424162,0.26215 0.135354,2.19123 0.135353,2.19124 h -0.312347 -0.312346 z m -34.487427,-2.07048 0.405267,-0.16218 0.186551,0.18655 0.186547,0.18655 -0.591819,-0.0244 -0.591802,-0.0244 z m 44.212199,-0.40662 v -0.4117 l 0.205848,0.20585 0.205847,0.20585 -0.205847,0.20585 -0.205848,0.20584 z m 1.312278,-0.45692 -0.385964,-0.44334 v -0.21526 -0.21528 l 0.617542,0.55887 0.617543,0.55887 v -0.54069 -0.54068 l -0.502951,-1.74576 -0.502951,-1.74577 -0.88652,-1.76663 -0.88652,-1.76663 v -0.19253 -0.19253 l 1.389471,0.81429 1.389471,0.81428 v -0.43859 -0.43858 l -2.035925,-2.19899 -2.035925,-2.19898 h 0.327208 0.327206 l 1.052177,0.50174 1.052176,0.50175 -0.161611,0.618 -0.161611,0.618 0.509381,0.28507 0.509381,0.28506 v 0.44782 0.44781 h 0.430123 0.430121 l 0.166302,0.43337 0.166301,0.43338 -0.164204,0.62792 -0.164205,0.62791 -0.740989,-0.28171 -0.740991,-0.28173 v 0.70527 0.70527 l 0.453337,0.59937 0.453336,0.59936 0.0098,0.50255 0.0098,0.50254 0.478443,0.39707 0.478443,0.39708 -0.09247,1.25911 -0.09248,1.25912 -0.463157,0.073 -0.463157,0.0731 z m -82.210361,-0.77816 v -0.4117 l 0.20584,0.20585 0.20585,0.20585 -0.20585,0.20584 -0.20584,0.20584 z m 79.85288,-1.3272 -0.492013,-1.25254 0.07693,-0.0769 0.07693,-0.0769 0.989952,1.17915 0.989954,1.17914 -0.57487,0.15034 -0.574871,0.15033 z m -79.54039,0.19503 -0.004,-0.66901 -0.35727,-0.11908 -0.35726,-0.11909 1.04389,-0.66095 1.0439,-0.66095 0.0925,0.0925 0.0926,0.0926 -0.77545,1.35652 -0.77543,1.35651 z m -1.85635,-0.98316 v -0.2627 l 0.36489,-1.04958 0.36489,-1.04958 1.79651,-2.91869 1.79652,-2.9187 v -0.24621 -0.24621 h -0.29676 -0.29676 l -1.71025,1.39302 -1.71027,1.39302 v -0.61031 -0.6103 l 0.49267,-1.47745 0.49266,-1.47745 0.91808,-1.82654 0.91808,-1.82654 1.40078,-1.82041 1.40077,-1.82041 -0.16695,-0.16696 -0.16697,-0.16696 -1.58386,0.52608 -1.58387,0.52607 -0.16039,-0.1604 -0.1604,-0.1604 2.57338,-2.60344 2.57338,-2.60346 1.07128,-0.80217 1.07128,-0.80216 -0.19602,-0.19602 -0.19602,-0.19602 -1.95596,0.3002 -1.95597,0.30021 -0.15438,-0.15135 -0.15438,-0.15133 1.23508,-1.08874 1.23509,-1.08875 2.85613,-1.39256 2.85614,-1.39257 v -0.23173 -0.23173 l -1.46666,-0.23108 -1.46667,-0.23108 0.92632,-0.40291 0.92631,-0.40293 2.23859,-0.53822 2.2386,-0.53821 v -0.24604 -0.24605 l -1.21415,-0.6194 -1.21413,-0.61941 -0.18448,-0.2985 -0.1845,-0.29851 1.56827,-0.46572 1.56826,-0.46573 3.22684,-0.52577 3.22685,-0.52577 v -0.21137 -0.21137 l -1.23508,-0.55696 -1.23509,-0.55694 v -0.3088 -0.3088 l 3.86744,0.18274 3.86744,0.18273 -0.62534,-0.87821 -0.62534,-0.87821 v -0.22252 -0.2225 l 0.92631,0.18527 0.92631,0.18526 -0.0164,-0.68702 -0.0165,-0.68702 -0.99919,-5.24912 -0.99921,-5.2491 -0.99131,-0.97976 -0.99132,-0.97975 v -0.74782 -0.74784 l 0.56466,-0.51101 0.56467,-0.51101 h 1.11117 1.11117 l 0.64535,0.82045 0.64537,0.82044 -0.2102,0.64622 -0.2102,0.64622 -0.059,1.0807 -0.0591,1.0807 0.39063,0.92631 0.39061,0.92631 0.98314,2.62456 0.98315,2.62456 0.62638,1.46666 0.62638,1.46666 h 0.249937 0.249938 l 0.196,-0.61753 0.195999,-0.61755 h 0.239085 0.239074 l 0.564797,1.86542 0.56481,1.86542 0.404042,-0.15505 0.404042,-0.15505 2.272436,-1.71037 2.272441,-1.71037 h 0.243555 0.243555 l -0.20306,1.26983 -0.203048,1.26981 1.475871,-0.87662 1.475859,-0.87664 1.389476,-0.6923 1.389466,-0.69231 0.412269,-0.009 0.412258,-0.009 -1.133295,1.54386 -1.133295,1.54386 h 0.378975 0.378975 l 2.040294,-0.60534 2.040307,-0.60534 2.007011,-0.46009 2.007012,-0.46009 -1.0035,0.90669 -1.003512,0.90668 v 0.11933 0.11933 l 6.179003,0.13562 6.179001,0.13561 0.331404,0.33141 0.331404,0.33141 -1.415678,0.54065 -1.415679,0.54065 v 0.23669 0.23668 l 4.245606,1.39723 4.245606,1.39725 1.473961,0.65759 1.473961,0.65759 -0.179906,0.29109 -0.179906,0.29109 -0.830898,0.0217 -0.830898,0.0217 -0.610895,0.23866 -0.610896,0.23866 1.228438,0.77392 1.228438,0.7739 0.966491,0.49837 0.966491,0.49837 1.025657,0.86033 1.025655,0.86034 -1.220038,0.15439 -1.220038,0.15438 2.469989,1.74087 2.46999,1.74087 1.064077,1.11527 1.064079,1.11526 h -0.448574 -0.448573 l -1.058211,-0.30349 -1.05821,-0.30349 -0.127162,0.12717 -0.127163,0.12715 1.574327,1.89175 1.574326,1.89175 0.467157,0.90338 0.467156,0.90338 -0.778974,-0.29618 -0.778976,-0.29616 -0.952912,-0.49277 -0.952913,-0.49277 -0.170942,0.17094 -0.170943,0.17095 1.394171,2.09042 1.39417,2.09041 0.461344,0.92632 0.461343,0.92631 -0.135668,0.37971 -0.13567,0.37972 1.3085,1.5518 1.308497,1.55181 -0.126957,0.0755 -0.126958,0.0755 -2.374358,-2.38153 -2.374359,-2.38154 0.907695,0.18154 0.907695,0.18154 v -0.21328 -0.21329 l -0.357659,-0.67443 -0.357658,-0.67443 -1.672503,-2.26692 -1.672502,-2.2669 0.160799,-0.1608 0.160797,-0.16079 1.46121,0.49788 1.46121,0.49788 h 0.264631 0.26463 l -0.36484,-0.69473 -0.364841,-0.69474 -2.193386,-2.13658 -2.193387,-2.13657 0.771929,0.18567 0.771928,0.18568 1.157893,0.20983 1.157892,0.20983 v -0.31939 -0.31938 l -3.385738,-2.26234 -3.385738,-2.26235 -0.01074,-0.23157 -0.01074,-0.23158 h 1.253308 1.253308 l -0.1729,-0.27976 -0.172899,-0.27975 -2.932956,-1.65007 -2.932954,-1.65006 -8.2e-5,-0.19557 -8e-5,-0.19557 0.694734,-0.18618 0.694737,-0.18617 0.694734,-0.005 0.694736,-0.005 v -0.28658 -0.2866 l -1.640092,-0.61363 -1.640091,-0.61364 -3.531827,-1.14542 -3.531829,-1.14542 -0.278242,-0.16282 -0.278241,-0.16281 1.043866,-0.85197 1.043866,-0.85196 -1.214765,-0.22789 -1.214765,-0.22789 -5.185931,0.19579 -5.185946,0.1958 v -0.17728 -0.17728 l 0.694744,-0.56327 0.694733,-0.56325 -0.213376,-0.21423 -0.213376,-0.21423 -3.72184,1.24504 -3.72185,1.24502 0.350943,-0.67141 0.350931,-0.67143 0.607452,-0.86689 0.607441,-0.8669 -0.183384,-0.18339 -0.183384,-0.18339 -1.934506,1.18269 -1.934505,1.1827 -0.72162,0.46107 -0.721621,0.46107 0.227789,-1.51901 0.227789,-1.51902 -0.586866,0.4551 -0.586866,0.4551 -1.816755,1.48591 -1.816743,1.48589 -0.344653,-0.10888 -0.344653,-0.10888 -0.442413,-1.45387 -0.442402,-1.45387 -0.326144,0.10876 -0.326132,0.10865 -0.424185,1.51925 -0.424175,1.51926 -0.11766,0.12676 -0.11765,0.12676 -0.55355,-0.50095 -0.55355,-0.50095 -1.13667,-0.47493 -1.13667,-0.47494 h -0.6354 -0.63539 l 0.50279,0.97227 0.50277,0.97226 -3.50536,-0.20125 -3.50537,-0.20124 1.06136,0.92082 1.06137,0.92083 -0.13506,0.13132 -0.13504,0.13134 -3.39649,0.5021 -3.39649,0.50211 -1.15788,0.31118 -1.1579,0.31118 0.0117,0.21967 0.0117,0.21968 1.26115,0.87309 1.26116,0.8731 -0.26936,0.24535 -0.26937,0.24535 -2.23859,0.53587 -2.2386,0.53587 v 0.23691 0.23691 l 0.92632,0.18527 0.92631,0.18526 v 0.25459 0.25461 l -3.16646,1.45664 -3.16646,1.45664 -0.92476,0.75554 -0.92476,0.75555 2.42384,0.0117 2.42385,0.0117 -2.42385,1.97267 -2.42384,1.97267 -1.23508,1.30891 -1.23508,1.30892 1.23508,-0.1937 1.23508,-0.19371 0.73175,-0.20025 0.73175,-0.20024 -2.09852,2.74745 -2.09851,2.74743 -1.1806,2.51568 -1.18059,2.51566 v 0.34046 0.34047 h 0.15913 0.15914 l 1.69349,-1.12442 1.69349,-1.12441 v -0.40222 -0.40222 l 0.80025,-0.86634 0.80024,-0.86635 -0.62205,0.94054 -0.62204,0.94054 0.0533,0.46076 0.0533,0.46077 -2.31578,4.83887 -2.31579,4.83885 -0.23157,0.0125 -0.23158,0.0125 z m 32.72976,-39.5725 v -0.89356 l -0.35833,-0.78646 -0.35833,-0.78646 h -0.27743 -0.27744 l 0.2299,0.372 0.22992,0.37201 0.0987,0.90229 0.0987,0.9023 -0.46485,-0.38579 -0.46486,-0.38579 v -0.70888 -0.70886 l -0.18741,-0.48841 -0.18742,-0.48841 h -0.27574 -0.27574 v 0.62241 0.6224 l 0.37901,1.21438 0.37901,1.21438 0.6245,0.28631 0.6245,0.2863 0.23157,-0.13429 0.23158,-0.1343 z m -4.14384,-14.0787 0.43858,0.1683 v -0.50635 -0.50634 l -0.51101,-0.56466 -0.51101,-0.56467 h -0.87846 -0.87846 v 0.3154 0.31538 l 0.84913,1.28735 0.84912,1.28736 0.10176,-0.70004 0.10176,-0.70003 z m 36.178865,52.78309 0.385964,-0.15574 0.385964,0.15574 0.385965,0.15574 h -0.771929 -0.771928 z m -60.133215,-2.69283 v -0.42714 l 0.64597,-0.16892 0.64596,-0.16893 -0.53944,0.59608 -0.53943,0.59606 h -0.10654 -0.10655 z m 1.13445,-1.88863 0.20483,-0.61755 0.85963,-0.99763 0.85962,-0.99763 0.16526,0.26738 0.16524,0.26738 -1.2297,1.34779 -1.2297,1.3478 z m 1.95326,-3.25179 v -0.29908 h 0.46317 0.46315 v 0.12134 0.12136 l -0.46315,0.17773 -0.46317,0.17773 z m -0.15438,-3.58102 1.23508,-1.09482 0.61755,-0.3301 0.61754,-0.33011 -1.54386,1.42553 -1.54386,1.42551 -0.30877,-5.9e-4 -0.30876,-5.9e-4 z m -1.69825,-0.5777 1.04747,-1.08071 h 0.15438 0.15438 l -1.04745,1.08071 -1.04746,1.0807 h -0.15438 -0.15438 z m 1.54387,-1.23509 v -0.15439 h 0.15438 0.15438 v 0.15439 0.15438 h -0.15438 -0.15438 z m 3.0877,-0.30877 v -0.15439 h 0.15439 0.15439 v 0.15439 0.15438 h -0.15439 -0.15439 z m 33.03854,-1.82738 v -0.74667 l -0.212198,-0.5656 -0.212197,-0.56561 0.520965,0.42377 0.520965,0.42377 v 0.88851 0.88851 h -0.308768 -0.308767 z m -33.3473,-0.76414 v -0.27574 l 0.44743,-0.17169 0.44743,-0.17171 -0.1717,0.44744 -0.17169,0.44743 h -0.27574 -0.27573 z m 32.112207,-0.49619 v -0.1544 h 0.154395 0.154384 v 0.1544 0.15438 h -0.154384 -0.154395 z m -30.877127,-0.30878 v -0.15438 h 0.15438 0.1544 v 0.15438 0.15438 h -0.1544 -0.15438 z m 0.61754,-0.30877 v -0.15438 h 0.15439 0.15438 v 0.15438 0.15439 h -0.15438 -0.15439 z m 4.01403,-0.69357 v -0.32613 l 1.09835,-0.64805 1.09835,-0.64804 0.36832,0.0124 0.3683,0.0124 -0.92631,0.48945 -0.92631,0.48943 -0.54035,0.47237 -0.54035,0.47237 z m 27.752972,-1.21804 -0.704361,-1.13967 -0.04201,-0.56953 -0.0419,-0.56952 0.23835,0.24254 0.238339,0.24254 0.626205,1.46666 0.626206,1.46666 h -0.11823 -0.118229 z m -29.502672,0.62507 0.20585,-0.20585 0.20584,0.20585 0.20585,0.20584 h -0.41169 -0.4117 z m 23.286496,-0.19538 -0.849128,-0.33553 v -0.24917 -0.24917 h 0.274574 0.274563 l 0.728937,0.60728 0.728954,0.60726 -0.1544,-0.0225 -0.154383,-0.0226 z m -29.564846,-0.062 v -0.15439 h 0.15439 0.15438 v 0.15439 0.15438 h -0.15438 -0.15439 z m 0.79354,-0.1194 -0.1692,-0.27379 0.42983,-0.35672 0.42984,-0.35673 0.95623,-0.27425 0.95624,-0.27425 v 0.30803 0.30802 l 0.54035,-0.15069 0.54035,-0.1507 0.7334,-0.21196 0.73341,-0.21197 -0.21127,0.34186 -0.21128,0.34185 0.40418,0.0139 0.40418,0.0139 -0.92631,0.40057 -0.92631,0.40056 -0.10095,-0.25431 -0.10095,-0.2543 -1.09461,0.45736 -1.09462,0.45735 h -0.56161 -0.56161 z m 12.7345,0.0629 0.40526,-0.16217 0.18655,0.18655 0.18655,0.18655 -0.59182,-0.0244 -0.5918,-0.0244 z m 1.08714,-0.30369 0.20584,-0.20585 0.20584,0.20585 0.20585,0.20585 h -0.41169 -0.41169 z m -1.80118,-0.5644 1.54386,-0.3932 0.54035,-0.22324 0.54035,-0.22324 v -0.27574 -0.27573 l -0.84912,-0.0217 -0.84912,-0.0217 0.61754,-0.26536 0.61755,-0.26537 1.31228,-0.0217 1.31226,-0.0217 -0.0771,-0.38597 -0.0771,-0.38596 0.38596,0.0309 0.38597,0.0309 1.62104,0.0573 1.62106,0.0573 -0.70442,0.39107 -0.70443,0.39107 0.18384,0.18384 0.18384,0.18384 -1.64082,0.21546 -1.64081,0.21547 -0.61755,0.38307 -0.61753,0.38306 -1.44902,0.35948 -1.44901,0.35948 -0.86677,-0.0342 -0.86677,-0.0342 z m 3.16491,0.24357 0.69473,-0.13381 0.69475,0.13381 0.69473,0.13381 h -1.38948 -1.38946 z m 11.810494,0.0635 v -0.15439 h 0.154396 0.154384 v 0.15439 0.15439 h -0.154384 -0.154396 z m 4.322807,0 v -0.15439 h 0.154384 0.154384 v 0.15439 0.15439 h -0.154384 -0.154384 z m -24.856091,-0.37648 0.61754,-0.15043 0.46317,-0.39225 0.46315,-0.39224 1.15359,-0.37034 1.15359,-0.37033 0.20732,-0.33543 0.2073,-0.33544 -2.05564,0.19195 -2.05563,0.19197 v -0.45154 -0.45154 h 0.5845 0.58451 l 0.18742,-0.48841 0.18742,-0.48841 v -0.10655 -0.10655 l -0.54035,-0.16121 -0.54035,-0.16121 1.23509,0.11658 1.23509,0.11659 2.11394,0.4531 2.11395,0.4531 0.33066,0.33066 0.33066,0.33068 -0.59198,0.21008 -0.59198,0.2101 -1.08069,0.45259 -1.08071,0.45258 -1.83398,0.73691 -1.83398,0.73691 -0.79058,-0.0358 -0.79057,-0.0358 z m 16.82803,-0.39545 -0.46315,-0.29931 h 0.61755 0.61753 l 0.463162,0.29931 0.463151,0.29932 h -0.617535 -0.617538 z m -23.15783,-0.15438 v -0.1544 h 0.15438 0.15438 v 0.1544 0.15438 h -0.15438 -0.15438 z m 0.61753,-0.30878 v -0.15438 h 0.15438 0.1544 v 0.15438 0.15438 h -0.1544 -0.15438 z m 40.569051,-0.33052 0.188764,-0.49192 v -0.38833 -0.38835 l 0.79967,-0.36435 0.799658,-0.36435 -0.114833,0.2376 -0.114834,0.23759 -0.417883,0.83214 -0.417883,0.83213 -0.455705,0.17488 -0.455718,0.17486 z m -39.951501,0.0217 V 359.262 h 0.15438 0.15438 v 0.15438 0.15439 h -0.15438 -0.15438 z m 0.61754,-0.30877 v -0.15439 h 0.15439 0.15438 v 0.15439 0.15439 h -0.15438 -0.15439 z m 0.64327,-0.26441 0.12865,-0.11005 1.01886,-0.19409 1.01886,-0.1941 -0.18796,0.30413 -0.18796,0.30412 h -0.95955 -0.95955 z m 28.072455,-0.35313 v -0.15438 h 0.154395 0.154384 v 0.15438 0.15438 h -0.154384 -0.154395 z m 3.087721,0 v -0.15438 h 0.154384 0.154383 v 0.15438 0.15438 h -0.154383 -0.154384 z m -12.042086,-0.30878 v -0.15438 h 0.15439 0.15438 v 0.15438 0.1544 h -0.15438 -0.15439 z m 5.774714,-0.56232 -0.679993,-0.71672 -1.466663,-0.7003 -1.466658,-0.7003 v -0.0518 -0.0519 l 1.397443,0.1111 1.397447,0.1111 0.918332,0.91833 0.918343,0.91835 v 0.4394 0.43941 h -0.169123 -0.169135 z m -8.553654,-0.0552 v -0.15439 h 0.15439 0.15438 v 0.15439 0.15438 h -0.15438 -0.15439 z m 4.63157,-0.15024 v -0.30464 l -1.11841,-0.46729 -1.11841,-0.46731 -0.65702,-0.0217 -0.65703,-0.0217 0.61755,-0.24673 0.61753,-0.24674 1.4781,0.74259 1.47809,0.74258 -0.18404,0.29779 -0.18404,0.29777 h -0.13616 -0.13616 z m 14.821026,0.15024 v -0.15439 h 0.154383 0.154384 v 0.15439 0.15438 h -0.154384 -0.154383 z m -33.244386,-0.66901 0.20585,-0.20584 0.20585,0.20584 0.20585,0.20585 h -0.4117 -0.4117 z m 0.36023,-0.72047 0.19083,-0.30877 h 0.61755 0.61755 l -0.19083,0.30877 -0.19083,0.30878 h -0.61755 -0.61755 z m 31.790761,-0.0205 -0.203527,-0.32932 0.185298,-0.18529 0.18531,-0.18531 v 0.37846 0.37845 l 0.356474,-0.22031 0.356487,-0.22032 -0.22032,0.35647 -0.22032,0.35649 h -0.117938 -0.117938 z m -30.882611,-1.34718 0.59936,-0.48491 0.63572,-0.0342 0.63572,-0.0342 0.77193,0.0645 0.77193,0.0645 0.46316,0.26906 0.46315,0.26908 -1.23508,0.0128 -1.23509,0.0128 -1.23509,0.17272 -1.23508,0.17273 z m 18.664762,-2.10595 -0.364563,-0.69474 0.662477,0.58821 0.662464,0.5882 v 0.10655 0.10655 h -0.297902 -0.297903 z m -0.58347,0.23158 v -0.15438 h 0.154383 0.154384 v 0.15438 0.15438 h -0.154384 -0.154383 z m -0.823392,-0.36023 0.20585,-0.20585 0.20585,0.20585 0.20585,0.20585 h -0.4117 -0.4117 z m -9.40544,-3.11345 -0.42378,-0.54036 0.54035,0.42378 0.54035,0.42378 v 0.11658 0.11658 h -0.11659 -0.11658 z"
       id="path2"
       inkscape:export-filename="27.png"
       inkscape:export-xdpi="96"
       inkscape:export-ydpi="96" /></g></svg>
